<?xml version="1.0" encoding="UTF-8"?>
<svg width="100pt" height="100pt" version="1.1" viewBox="0 0 100 100" xmlns="http://www.w3.org/2000/svg">
 <path d="m5 0h90c2.7617 0 5 2.7617 5 5v90c0 2.7617-2.2383 5-5 5h-90c-2.7617 0-5-2.7617-5-5v-90c0-2.7617 2.2383-5 5-5z" fill="#f5ede6"/>
 <path d="m51.344 58.379c0.09375 0.57812-0.30078 1.1211-0.87891 1.2109-1.0234 0.16406-2.0586 0.32031-3.1055 0.46875-4.2617 0.59766-4.7578 2.4844-4.7578 3.8516 0 0.50391 0.082032 1.0703 0.23828 1.6719 0.36719 1.4102 0.55469 2.9766 0.55469 4.6523 0 2.3672-0.375 4.125-0.39062 4.1992-0.10938 0.49609-0.54688 0.83594-1.0352 0.83594-0.074219 0-0.14844-0.007812-0.22266-0.023437-0.49609-0.10547-0.83594-0.54688-0.83594-1.0352 0-0.074219 0.007813-0.14844 0.023438-0.22266 0.003906-0.015625 0.34375-1.625 0.34375-3.7539 0-1.4961-0.16406-2.8789-0.48828-4.1172-0.20312-0.77734-0.30859-1.5234-0.30859-2.2109 0-2.293 1.1406-5.1836 6.5781-5.9453 1.0352-0.14453 2.0586-0.30078 3.0664-0.46094 0.58594-0.097656 1.1172 0.30078 1.2109 0.875 0.003906 0 0.007812 0 0.007812 0.003906zm23.695-5.5742c-0.070312-0.22266-0.20703-0.40625-0.37891-0.53516-0.26172-0.19531-0.60547-0.26953-0.94141-0.16797-0.83984 0.25781-2.6172 0.78125-5.0625 1.4336-0.5625 0.14844-0.89844 0.72656-0.75 1.2891v0.003906c0.125 0.47266 0.55469 0.78516 1.0195 0.78516 0.089844 0 0.18359-0.011719 0.27344-0.035156 2.4766-0.66016 4.2773-1.1953 5.1328-1.4531 0.55859-0.17188 0.875-0.76172 0.70703-1.3203zm-19.762-22.629c0.19922 0.32812 0.54688 0.50781 0.90625 0.50781 0.1875 0 0.37891-0.050782 0.54688-0.15234 3.0547-1.8555 5.4141-3.2617 6.3672-3.8281 0.41797-0.24609 0.59766-0.73438 0.47656-1.1797-0.023438-0.09375-0.058594-0.18359-0.10938-0.26953-0.29688-0.50391-0.94922-0.67188-1.4492-0.36719-0.95312 0.56641-3.3203 1.9766-6.3867 3.8359-0.49609 0.30078-0.65234 0.95312-0.35156 1.4531zm-13.801 9.9062c0.48828-0.32031 0.625-0.97266 0.30859-1.4648-0.32031-0.48828-0.97656-0.625-1.4648-0.30859-10.344 6.75-11.539 8.3984-11.934 8.9414-3.0781 4.2422-3.4727 16.633-3.4727 26.957 0 0.58594 0.47266 1.0586 1.0586 1.0586 0.58594 0 1.0586-0.47266 1.0586-1.0586 0-2.3633 0-6.875 0.26953-11.527 0.35938 0.71094 0.73828 1.332 1.0977 1.6914 0.20703 0.20703 0.47656 0.30859 0.75 0.30859 0.26953 0 0.54297-0.10156 0.75-0.30859 0.41406-0.41406 0.41406-1.082 0-1.4961-0.58203-0.58594-1.6211-3.1133-2.2227-4.8516 0.44141-4.1289 1.1797-7.8125 2.4258-9.5312 0.50781-0.69922 2.6602-2.7227 11.375-8.4102zm20.746-11.27c-0.22266 0.55078 0.042969 1.1641 0.58203 1.375 0.12891 0.054688 0.26562 0.074219 0.39062 0.074219 0.42188 0 0.82422-0.24219 0.98438-0.65625 0.22266-0.55078-0.042969-1.1641-0.58203-1.375-0.55078-0.21875-1.1641 0.042969-1.375 0.58203zm-14.723 15.082c0.16016 0.42578 0.5625 0.6875 0.98438 0.6875 0.12891 0 0.25391-0.019531 0.38281-0.074219 0.53906-0.19922 0.81641-0.8125 0.61328-1.3672-0.21094-0.53906-0.81641-0.8125-1.3672-0.61328-0.55078 0.21484-0.82422 0.82812-0.61328 1.3672zm-11.41 0.67969c-0.58203-0.03125-1.0898 0.41406-1.1211 0.99609-0.03125 0.58203 0.41406 1.0898 0.99609 1.1211h0.0625c0.55078 0 1.0273-0.43359 1.0586-0.99609 0.03125-0.58203-0.41406-1.0898-0.99609-1.1211zm5.2188 0.76953c-0.0625-0.58203-0.58203-0.99219-1.1641-0.92969-0.58203 0.054688-0.99609 0.58203-0.92969 1.1641 0.054687 0.53906 0.50781 0.94141 1.0469 0.94141 0.042969 0 0.074219 0 0.11719-0.011719 0.58203-0.0625 0.99219-0.57812 0.92969-1.1641zm20.023-11.289c0.35938 0 0.71094-0.17969 0.89844-0.50781h0.011719c0.29687-0.50781 0.13672-1.1523-0.37109-1.4492-0.49609-0.30859-1.1523-0.14844-1.4492 0.35938-0.29688 0.49609-0.13672 1.1523 0.35938 1.4492 0.17188 0.10547 0.35938 0.14844 0.55078 0.14844zm-3.2812 1.6719c-0.37891 0.44531-0.32812 1.1094 0.11719 1.5039 0.19141 0.17188 0.44531 0.25391 0.6875 0.25391 0.29688 0 0.59375-0.12891 0.80469-0.37109 0.37891-0.44531 0.32812-1.1133-0.10547-1.4922-0.44531-0.38281-1.1211-0.32812-1.5039 0.10547zm-13.852 8c-0.57031 0.125-0.92188 0.69922-0.79297 1.2695 0.11719 0.48828 0.55078 0.81641 1.0391 0.81641 0.074219 0 0.15625-0.011719 0.23438-0.03125 0.57031-0.125 0.92969-0.69922 0.79297-1.2695-0.13281-0.57422-0.70312-0.92188-1.2734-0.78516zm9.0469-2.5078c-0.29688-0.51953-0.94141-0.69922-1.4492-0.40234-0.50781 0.28516-0.6875 0.92969-0.40234 1.4375 0.20312 0.33984 0.5625 0.53906 0.92969 0.53906 0.16797 0 0.34766-0.054688 0.51953-0.13672 0.50781-0.28516 0.69141-0.92969 0.40234-1.4375zm2.5742-0.80469c0.23438 0 0.47656-0.074218 0.66797-0.23047 0.45312-0.37109 0.52734-1.0352 0.15625-1.4922-0.37109-0.45312-1.0352-0.51953-1.4922-0.14844-0.45312 0.35938-0.51953 1.0273-0.15625 1.4844 0.21094 0.25781 0.51562 0.38672 0.82422 0.38672zm2.4219 8.7734c-0.57031 0.12891-0.93359 0.6875-0.81641 1.2578 0.10547 0.49609 0.55078 0.83594 1.0391 0.83594 0.074218 0 0.14844-0.011719 0.22266-0.023438 0.57031-0.125 0.94141-0.6875 0.8125-1.2578-0.125-0.57031-0.68359-0.92969-1.2578-0.8125zm-4.2109 1.2695c-0.53906 0.21094-0.8125 0.82422-0.60156 1.3672 0.16016 0.42578 0.5625 0.67578 0.98437 0.67578 0.12891 0 0.26563-0.019531 0.37891-0.074219h0.011719c0.53906-0.21094 0.80469-0.82422 0.60156-1.3672-0.22266-0.54688-0.83594-0.8125-1.375-0.60156zm-7.5781 4.3711c-0.45312 0.35938-0.53906 1.0273-0.16797 1.4844 0.19922 0.26562 0.50781 0.40234 0.82422 0.40234 0.23047 0 0.46484-0.074219 0.65625-0.23438 0.45312-0.35938 0.53906-1.0273 0.16797-1.4805-0.35938-0.46875-1.0234-0.54297-1.4805-0.17188zm24.27-3.332h-0.011718c0.11719 0.03125 0.22266 0.054687 0.32812 0.054687 0.45313 0 0.86719-0.28516 1.0156-0.73047 0.17969-0.55078-0.12891-1.1523-0.67578-1.332-0.55859-0.17969-1.1523 0.11719-1.332 0.67578-0.19531 0.54688 0.11328 1.1406 0.67578 1.332zm-3.7383-2.8281c-0.58203-0.054688-1.1016 0.37109-1.1523 0.95312-0.054687 0.58203 0.37109 1.1016 0.95312 1.1523 0.03125 0 0.074219 0.011718 0.10547 0.011718 0.53906 0 0.99609-0.41406 1.0469-0.96484 0.0625-0.57812-0.37109-1.0977-0.95312-1.1523zm-5.3867 1.0469c0.03125 0.5625 0.49609 0.99609 1.0586 0.99609h0.0625c0.58203-0.042969 1.0273-0.53906 0.99609-1.1211-0.03125-0.58203-0.53906-1.0273-1.1211-0.99609s-1.0273 0.53906-0.99609 1.1211zm-11.527 2.6367c-0.50781 0.29688-0.67578 0.94141-0.37891 1.4492 0.19141 0.33984 0.55078 0.52734 0.91016 0.52734 0.17969 0 0.35938-0.042969 0.52734-0.13672 0.50781-0.29688 0.67969-0.94141 0.39062-1.4492-0.29297-0.50781-0.9375-0.67578-1.4492-0.39063zm-1.0195-18.805 0.32812 0.25781 3.3828 2.6797c0.007812 0.007813 0.019531 0.011719 0.03125 0.019531 0.03125 0.023438 0.0625 0.046875 0.097656 0.0625 0.019531 0.011719 0.035156 0.019532 0.054687 0.027344 0.03125 0.015625 0.0625 0.027344 0.09375 0.042969 0.019532 0.007812 0.042969 0.015625 0.0625 0.023437 0.03125 0.011719 0.066407 0.019532 0.10156 0.023438 0.019531 0.003906 0.039063 0.007812 0.058594 0.011718 0.050781 0.007813 0.10156 0.011719 0.15625 0.011719h0.003906c0.14844 0 0.30469-0.03125 0.44922-0.097656 0.058594-0.027344 0.11328-0.0625 0.16016-0.097656 0.015625-0.011719 0.03125-0.023438 0.042969-0.035157 0.039062-0.03125 0.074219-0.0625 0.10938-0.097656 0.007812-0.011718 0.019531-0.019531 0.027344-0.027344 0.039062-0.042968 0.074218-0.09375 0.10547-0.14453 0.007813-0.015625 0.015625-0.027343 0.023438-0.042969 0.023437-0.039062 0.042968-0.082031 0.058594-0.12891 0.003906-0.015625 0.011718-0.027344 0.015624-0.042968 0.019532-0.058594 0.035157-0.11719 0.046876-0.17578 0-0.007812 0-0.015625 0.003906-0.023437 0.003906-0.039063 0.011718-0.078125 0.011718-0.11719l0.125-4.7305c0.003907-0.11719-0.019531-0.22656-0.050781-0.33203-0.12891-0.42578-0.51172-0.74219-0.98047-0.75391h-0.027343c-0.57031 0-1.043 0.45703-1.0586 1.0312l-0.007813 0.25-1.2383-2.6484c-0.24609-0.52734-0.87891-0.75781-1.4062-0.51172-0.52734 0.25-0.75781 0.87891-0.51172 1.4062l1.2383 2.6484-0.19141-0.15234c-0.46094-0.36328-1.125-0.28516-1.4883 0.17188-0.36328 0.46484-0.28516 1.1328 0.17188 1.4922zm-6.7031 3.7656 0.65625 0.51953 3.0547 2.418c0.007812 0.007812 0.019531 0.011719 0.03125 0.019531 0.03125 0.023438 0.0625 0.042969 0.097656 0.0625 0.019531 0.011719 0.035156 0.019531 0.054688 0.027344 0.03125 0.015625 0.0625 0.027344 0.09375 0.039063 0.019531 0.007812 0.039062 0.015624 0.0625 0.023437 0.035156 0.011719 0.066406 0.019531 0.10156 0.027344 0.019531 0.003906 0.039062 0.007812 0.058594 0.011719 0.050781 0.007812 0.10156 0.011718 0.15625 0.011718h0.003906c0.14844 0 0.30469-0.03125 0.44922-0.097656 0.058593-0.027344 0.11328-0.058594 0.16016-0.097656 0.015625-0.011719 0.03125-0.023438 0.046875-0.035156 0.039062-0.03125 0.074219-0.0625 0.10938-0.097657 0.007813-0.007812 0.019531-0.019531 0.027344-0.027343 0.039062-0.042969 0.074219-0.09375 0.10547-0.14453 0.007812-0.015625 0.015624-0.027344 0.023437-0.042968 0.023437-0.039063 0.042969-0.082032 0.058594-0.12891 0.003906-0.015625 0.011719-0.027343 0.015625-0.042969 0.019531-0.058593 0.035156-0.11719 0.046875-0.17578 0-0.007812 0-0.015625 0.003906-0.023437 0.003906-0.039063 0.011719-0.078125 0.011719-0.11719l0.125-4.7188v-0.015625c0.015625-0.58594-0.44531-1.0703-1.0312-1.0859h-0.027344c-0.57031 0-1.043 0.45703-1.0586 1.0312l-0.007812 0.25-1.2383-2.6484c-0.24609-0.52734-0.87891-0.75781-1.4062-0.51172-0.52734 0.25-0.75781 0.87891-0.51172 1.4062l1.2383 2.6484-0.19531-0.15234c-0.45703-0.36328-1.125-0.28516-1.4883 0.17188-0.36328 0.46484-0.28516 1.1328 0.17188 1.4961zm23.879 18.164-0.21875-0.17187-3.5234-2.7305c-0.027344-0.019531-0.054687-0.039063-0.085937-0.058594-0.011719-0.007813-0.023438-0.019531-0.035157-0.023437-0.050781-0.027344-0.10156-0.050782-0.15625-0.074219-0.019531-0.007813-0.039062-0.011719-0.0625-0.019531-0.035156-0.011719-0.074219-0.019532-0.11328-0.027344-0.023438-0.003906-0.046875-0.007813-0.070312-0.011719-0.054688-0.007813-0.10938-0.007813-0.16016-0.007813-0.023437 0-0.046875 0.003907-0.066406 0.007813-0.039063 0.003906-0.078125 0.007813-0.11719 0.015625-0.023438 0.003906-0.046876 0.011719-0.070313 0.015625-0.058594 0.015625-0.11719 0.035156-0.17188 0.0625-0.058594 0.027344-0.11328 0.0625-0.16406 0.097656-0.015626 0.011719-0.027344 0.019531-0.039063 0.03125-0.039063 0.03125-0.078125 0.066407-0.11328 0.10547-0.007813 0.007812-0.015625 0.015625-0.023438 0.023438-0.039062 0.046874-0.074218 0.097656-0.10547 0.14844-0.007813 0.011719-0.011719 0.023437-0.019532 0.039063-0.023437 0.042968-0.046875 0.089843-0.0625 0.13672-0.003906 0.011719-0.011718 0.027344-0.015625 0.039063-0.019531 0.058593-0.035156 0.11719-0.042969 0.17969v0.023438c-0.003906 0.039062-0.007812 0.078125-0.011718 0.11719l-0.050782 3.1523-0.019531 1.582c-0.007812 0.58594 0.45703 1.0664 1.043 1.0742h0.015625c0.57812 0 1.0508-0.46094 1.0586-1.043l0.003906-0.25 1.2656 2.6367c0.18359 0.37891 0.55859 0.60156 0.95312 0.60156 0.15234 0 0.30859-0.035157 0.45703-0.10547 0.52734-0.25391 0.75-0.88672 0.49609-1.4102l-1.2695-2.6406 0.19922 0.15234c0.46094 0.35938 1.1289 0.27344 1.4844-0.1875 0.35938-0.45703 0.27734-1.1211-0.1875-1.4805zm-7.3906 2.2656-0.80078-0.61719-2.9414-2.2812c-0.023438-0.019531-0.050781-0.035156-0.078125-0.050781-0.015625-0.011719-0.03125-0.023438-0.046875-0.03125-0.046875-0.027344-0.097656-0.050781-0.14844-0.070313-0.023437-0.007812-0.046874-0.015625-0.070312-0.023437-0.03125-0.007813-0.0625-0.019531-0.097656-0.023438-0.027344-0.003906-0.054688-0.011719-0.082032-0.015625-0.042968-0.003906-0.089843-0.007812-0.13281-0.007812-0.035156 0-0.066406 0.003906-0.097656 0.007812-0.035156 0.003906-0.070313 0.007813-0.10547 0.015625-0.023437 0.003907-0.046875 0.011719-0.074219 0.019531-0.058594 0.015626-0.11719 0.035157-0.17188 0.0625-0.058593 0.027344-0.11328 0.0625-0.16406 0.097657-0.015625 0.011719-0.027344 0.019531-0.039063 0.03125-0.039062 0.03125-0.078125 0.066406-0.11328 0.10547-0.007813 0.007812-0.015625 0.015624-0.023437 0.023437-0.039063 0.046875-0.074219 0.097656-0.10547 0.14844-0.007813 0.011719-0.015625 0.023438-0.019531 0.039063-0.023438 0.042969-0.042969 0.089844-0.0625 0.13281-0.003907 0.011718-0.011719 0.027343-0.015626 0.039062-0.019531 0.058594-0.035156 0.11719-0.042968 0.17578v0.023438c-0.003906 0.039062-0.007813 0.078125-0.011719 0.11719l-0.039063 2.3633-0.039062 2.3711c-0.007812 0.58203 0.45703 1.0664 1.043 1.0742h0.015625c0.57812 0 1.0508-0.46094 1.0586-1.043l0.003906-0.25 1.2656 2.6367c0.18359 0.37891 0.55859 0.60156 0.95312 0.60156 0.15234 0 0.30859-0.03125 0.45703-0.10547 0.52734-0.25391 0.75-0.88672 0.49609-1.4102l-1.2656-2.6367 0.19922 0.15234c0.46094 0.35938 1.1289 0.27344 1.4844-0.1875 0.35547-0.46094 0.27344-1.125-0.1875-1.4844z" fill="#316f7d"/>
</svg>
