<?xml version="1.0" encoding="UTF-8"?>
<svg width="100pt" height="100pt" version="1.1" viewBox="0 0 100 100" xmlns="http://www.w3.org/2000/svg">
 <path d="m5 0h90c2.7617 0 5 2.7617 5 5v90c0 2.7617-2.2383 5-5 5h-90c-2.7617 0-5-2.7617-5-5v-90c0-2.7617 2.2383-5 5-5z" fill="#f5ede6"/>
 <path d="m50 80.227c16.625 0 30.23-13.602 30.23-30.23-0.003907-16.621-13.605-30.227-30.23-30.227s-30.23 13.605-30.23 30.23 13.605 30.227 30.23 30.227zm0-57.938c15.242 0 27.711 12.469 27.711 27.711s-12.469 27.711-27.711 27.711-27.711-12.473-27.711-27.711c0-15.242 12.469-27.711 27.711-27.711z" fill="#316f7d"/>
 <path d="m40.555 59.699c0-2.0156-1.6367-3.7773-3.7773-3.7773l-7.3086-0.003906c-2.0156 0-3.7773 1.6367-3.7773 3.7773 0 2.1406 1.6367 3.7773 3.7773 3.7773h7.4297c2.0156-0.12109 3.6562-1.7578 3.6562-3.7734zm-12.344 0c0-0.62891 0.50391-1.2578 1.2578-1.2578h7.4297c0.62891 0 1.2578 0.50391 1.2578 1.2578 0 0.75391-0.50391 1.2578-1.2578 1.2578h-7.4297c-0.62891-0.125-1.2578-0.62891-1.2578-1.2578z" fill="#316f7d"/>
 <path d="m42.57 59.699c0 2.0156 1.6367 3.7773 3.7773 3.7773h7.4297c2.0156 0 3.7773-1.6367 3.7773-3.7773s-1.6367-3.7773-3.7773-3.7773h-7.4297c-2.1406-0.003906-3.7773 1.6367-3.7773 3.7773zm12.34 0c0 0.62891-0.50391 1.2578-1.2578 1.2578h-7.4297c-0.62891 0-1.2578-0.50391-1.2578-1.2578 0-0.75391 0.50391-1.2578 1.2578-1.2578h7.4297c0.75391-0.003906 1.2578 0.5 1.2578 1.2578z" fill="#316f7d"/>
 <path d="m63.098 55.918c-2.0156 0-3.7773 1.6367-3.7773 3.7773 0 2.1406 1.6367 3.7773 3.7773 3.7773h7.4297c2.0156 0 3.7773-1.6367 3.7773-3.7773 0-2.1406-1.6367-3.7773-3.7773-3.7773zm8.6914 3.7812c0 0.62891-0.50391 1.2578-1.2578 1.2578h-7.4297c-0.62891 0-1.2578-0.50391-1.2578-1.2578 0-0.75391 0.50391-1.2578 1.2578-1.2578h7.4297c0.62891-0.003906 1.2578 0.5 1.2578 1.2578z" fill="#316f7d"/>
 <path d="m45.34 64.359h-7.4297c-2.0156 0-3.7773 1.6367-3.7773 3.7773s1.6367 3.7773 3.7773 3.7773h7.4297c2.0156 0 3.7773-1.6367 3.7773-3.7773s-1.7617-3.7773-3.7773-3.7773zm0 5.0352h-7.4297c-0.62891 0-1.2578-0.50391-1.2578-1.2578 0-0.75391 0.50391-1.2578 1.2578-1.2578h7.4297c0.62891 0 1.2578 0.50391 1.2578 1.2578 0 0.75781-0.62891 1.2578-1.2578 1.2578z" fill="#316f7d"/>
 <path d="m62.09 64.359h-7.4297c-2.0156 0-3.7773 1.6367-3.7773 3.7773s1.6367 3.7773 3.7773 3.7773h7.4297c2.0156 0 3.7773-1.6367 3.7773-3.7773 0.003906-2.1406-1.7617-3.7773-3.7773-3.7773zm0 5.0352h-7.4297c-0.62891 0-1.2578-0.50391-1.2578-1.2578 0-0.75391 0.50391-1.2578 1.2578-1.2578h7.4297c0.62891 0 1.2578 0.50391 1.2578 1.2578 0.003906 0.75781-0.625 1.2578-1.2578 1.2578z" fill="#316f7d"/>
 <path d="m24.559 50.379c0.125 0 4.1562 1.3867 9.4453 1.3867 5.918 0 13.602-1.7617 19.27-9.0703 0.37891-0.50391 0.37891-1.3867-0.25-1.7617-0.50391-0.37891-1.3867-0.37891-1.7617 0.25-9.5742 12.344-25.191 7.0547-25.82 6.8008-0.62891-0.25-1.3867 0.125-1.6367 0.75391-0.25391 0.75781 0.12109 1.5117 0.75391 1.6406z" fill="#316f7d"/>
 <path d="m63.227 46.473c4.5352 0 8.3125-3.7773 8.3125-8.3125s-3.6523-8.3125-8.3125-8.3125c-4.6602 0-8.3125 3.7773-8.3125 8.3125-0.003906 4.5352 3.7773 8.3125 8.3125 8.3125zm0-14.105c3.1484 0 5.793 2.6445 5.793 5.793 0 3.1484-2.6445 5.793-5.793 5.793-3.1484 0-5.793-2.6445-5.793-5.793-0.003906-3.1484 2.6406-5.793 5.793-5.793z" fill="#316f7d"/>
 <path d="m39.293 42.57c2.6445 0 4.7852-2.1406 4.7852-4.7852 0-2.6445-2.1406-4.7852-4.7852-4.7852s-4.7852 2.1406-4.7852 4.7852c0 2.6406 2.1406 4.7852 4.7852 4.7852zm0-7.0547c1.2578 0 2.2656 1.0078 2.2656 2.2656s-1.0078 2.2656-2.2656 2.2656c-1.2578 0-2.2656-1.0078-2.2656-2.2656s1.1328-2.2656 2.2656-2.2656z" fill="#316f7d"/>
</svg>
